<svg xmlns="http://www.w3.org/2000/svg" viewBox="0 0 100 100" fill="none">
  <!-- Main sail -->
  <path d="M50 18 L50 62 L28 62 Z" fill="white" fill-opacity="0.92"/>
  <!-- Second sail -->
  <path d="M53 26 L53 60 L72 60 Z" fill="white" fill-opacity="0.75"/>
  <!-- Small front sail -->
  <path d="M27 48 L27 62 L18 62 Z" fill="white" fill-opacity="0.6"/>
  <!-- Hull -->
  <path d="M16 63 Q50 70 84 63 L80 67 Q50 75 20 67 Z" fill="#7ec8e3"/>
  <!-- Wave 1 -->
  <path d="M12 74 Q27 69 42 74 Q57 79 72 74 Q80 71 88 74" stroke="#7ec8e3" stroke-width="4.5" stroke-linecap="round" fill="none"/>
  <!-- Wave 2 -->
  <path d="M18 83 Q33 78 48 83 Q63 88 78 83" stroke="#5bb5d5" stroke-width="4" stroke-linecap="round" fill="none"/>
  <!-- Wave 3 -->
  <path d="M28 91 Q40 87 52 91 Q62 94 70 91" stroke="#4aa8cc" stroke-width="3" stroke-linecap="round" fill="none"/>
</svg>
